<?xml version="1.0" encoding="UTF-8"?>
<!DOCTYPE svg PUBLIC "-//W3C//DTD SVG 1.1//EN" "http://www.w3.org/Graphics/SVG/1.1/DTD/svg11.dtd">
<!-- Creator: CorelDRAW -->
<svg xmlns="http://www.w3.org/2000/svg" xml:space="preserve" width="2048px" height="2048px" style="shape-rendering:geometricPrecision; text-rendering:geometricPrecision; image-rendering:optimizeQuality; fill-rule:evenodd; clip-rule:evenodd"
viewBox="0 0 2048 2048"
 xmlns:xlink="http://www.w3.org/1999/xlink">
 <defs>
  <style type="text/css">
   <![CDATA[
    .fil2 {fill:none}
    .fil4 {fill:#212121}
    .fil7 {fill:#59B2CF}
    .fil6 {fill:#67C2E1}
    .fil1 {fill:#757575}
    .fil9 {fill:#9CCF78}
    .fil0 {fill:#9E9E9E}
    .fil8 {fill:#A37767}
    .fil11 {fill:#CCCCCC}
    .fil10 {fill:#FDFDFE}
    .fil12 {fill:#FFFFFE}
    .fil3 {fill:#3B3B3B;fill-rule:nonzero}
    .fil5 {fill:#424242;fill-rule:nonzero}
   ]]>
  </style>
   <clipPath id="id0">
    <path d="M1024 -0.0011811c565.541,0 1024,458.461 1024,1024 0,565.541 -458.461,1024 -1024,1024 -565.541,0 -1024,-458.461 -1024,-1024 0,-565.541 458.461,-1024 1024,-1024z"/>
   </clipPath>
 </defs>
 <g id="Layer_x0020_1">
  <metadata id="CorelCorpID_0Corel-Layer"/>
  <path class="fil0" d="M1024 -0.0011811c565.541,0 1024,458.461 1024,1024 0,565.541 -458.461,1024 -1024,1024 -565.541,0 -1024,-458.461 -1024,-1024 0,-565.541 458.461,-1024 1024,-1024z"/>
  <g style="clip-path:url(#id0)">
   <g id="_452510240">
    <polygon id="_4525048641" class="fil1" points="2651.97,2161.43 2652.01,2161.42 2653.52,2155.55 2654.94,2149.66 2656.29,2143.76 2657.55,2137.84 2658.73,2131.9 2659.83,2125.94 2660.85,2119.97 2661.79,2113.98 2662.65,2107.98 2663.43,2101.96 2664.12,2095.93 2664.74,2089.89 2665.27,2083.84 2665.72,2077.77 2666.09,2071.7 2666.38,2065.62 2666.58,2059.53 2666.71,2053.43 2666.75,2047.32 2666.71,2041.21 2666.58,2035.09 2666.38,2028.97 2666.09,2022.84 2665.72,2016.71 2665.26,2010.58 2664.73,2004.44 2664.11,1998.3 2663.41,1992.16 2662.62,1986.03 2661.75,1979.89 2660.8,1973.75 2659.77,1967.62 2659.26,1964.73 2658.74,1961.84 2658.19,1958.95 2657.63,1956.07 2657.05,1953.18 2656.44,1950.3 2655.82,1947.41 2655.18,1944.53 2654.52,1941.65 2653.85,1938.77 2653.15,1935.89 2652.43,1933.02 2651.7,1930.14 2650.94,1927.27 2650.17,1924.4 2649.38,1921.54 2648.57,1918.67 2647.74,1915.81 2646.89,1912.94 2646.02,1910.09 2645.13,1907.23 2644.22,1904.38 2643.29,1901.52 2642.35,1898.68 2641.38,1895.83 2640.39,1892.99 2639.39,1890.15 2638.36,1887.31 2637.32,1884.48 2636.25,1881.65 2635.17,1878.82 2634.06,1875.99 2633.5,1874.55 2632.92,1873.1 2632.35,1871.65 2631.77,1870.21 2631.18,1868.76 2630.59,1867.32 2629.99,1865.88 2629.39,1864.44 2628.79,1863 2628.17,1861.56 2627.56,1860.12 2626.94,1858.68 2626.31,1857.24 2625.68,1855.81 2625.04,1854.37 2624.4,1852.94 2622.65,1849.08 2620.86,1845.24 2619.03,1841.43 2617.16,1837.64 2615.26,1833.88 2613.33,1830.14 2611.36,1826.42 2609.35,1822.73 2607.32,1819.06 2605.25,1815.42 2603.15,1811.8 2601.02,1808.2 2598.86,1804.63 2596.67,1801.09 2594.45,1797.56 2592.21,1794.07 2589.93,1790.6 2587.63,1787.15 2585.3,1783.73 2582.95,1780.34 2580.57,1776.97 2578.17,1773.63 2575.74,1770.31 2573.29,1767.02 2570.82,1763.75 2568.33,1760.52 2565.82,1757.3 2563.28,1754.12 2560.73,1750.96 2558.16,1747.82 2555.56,1744.72 2552.95,1741.64 2550.39,1739.08 2549.55,1738.13 2547.89,1736.26 2546.21,1734.41 2544.53,1732.57 2542.84,1730.74 2541.14,1728.91 2539.43,1727.1 2537.72,1725.3 2535.99,1723.51 2534.26,1721.73 2532.51,1719.96 2530.76,1718.2 2529,1716.45 2527.23,1714.72 2525.45,1712.99 2526.03,1712.71 1390.15,576.831 1385.14,571.975 1380.07,567.204 1374.93,562.516 1369.73,557.913 1364.47,553.395 1359.14,548.963 1353.76,544.616 1348.31,540.355 1342.81,536.182 1337.24,532.095 1331.63,528.096 1325.95,524.184 1320.23,520.362 1314.45,516.628 1308.62,512.983 1302.74,509.428 1296.81,505.963 1290.83,502.589 1284.81,499.306 1278.74,496.113 1272.63,493.013 1266.47,490.004 1260.27,487.088 1254.03,484.267 1247.75,481.537 1241.43,478.902 1235.07,476.36 1228.67,473.914 1222.24,471.564 1215.78,469.308 1209.28,467.149 1202.75,465.085 1202.54,467.509 1192.92,464.725 1183.23,462.15 1173.49,459.787 1163.69,457.634 1153.85,455.694 1143.95,453.97 1134.01,452.461 1124.03,451.168 1114.02,450.095 1103.97,449.241 1093.89,448.608 1083.78,448.198 1073.65,448.013 1063.51,448.052 1053.35,448.316 1043.17,448.81 1032.99,449.533 1022.8,450.486 1012.61,451.67 1002.43,453.089 992.245,454.741 982.074,456.631 971.916,458.757 961.774,461.122 951.653,463.726 941.554,466.572 931.483,469.661 921.444,472.994 911.437,476.572 901.469,480.396 891.543,484.47 881.661,488.791 880.125,489.469 878.694,490.124 877.266,490.783 875.841,491.446 874.42,492.114 873.003,492.785 871.588,493.461 870.178,494.142 868.77,494.826 866.401,495.99 864.042,497.167 861.692,498.356 859.351,499.556 857.02,500.768 854.698,501.993 852.387,503.228 850.084,504.475 847.791,505.734 845.508,507.004 843.235,508.285 840.97,509.579 838.717,510.884 836.472,512.2 834.237,513.526 832.012,514.864 829.796,516.214 827.591,517.575 825.394,518.946 823.208,520.328 821.032,521.722 818.865,523.126 818.403,523.43 743.9,448.927 743.546,448.663 743.158,448.476 742.75,448.365 742.333,448.334 741.919,448.383 741.523,448.518 741.154,448.738 732.019,455.621 727.368,459.127 718.234,466.01 717.921,466.303 717.682,466.648 717.52,467.032 717.435,467.442 717.428,467.865 717.503,468.289 717.657,468.701 717.896,469.089 724.03,477.23 724.338,477.566 731.872,485.1 730.916,485.829 729.374,487.014 727.835,488.203 726.301,489.397 714.096,499.223 702.216,509.364 690.664,519.812 679.444,530.556 668.561,541.591 658.02,552.909 647.822,564.498 637.974,576.351 628.479,588.46 619.342,600.817 610.567,613.413 602.156,626.24 594.116,639.289 586.45,652.551 579.162,666.019 572.255,679.685 565.737,693.539 559.607,707.573 553.872,721.778 548.537,736.147 543.605,750.671 539.08,765.342 534.967,780.149 531.267,795.088 527.989,810.147 525.134,825.32 522.707,840.596 520.711,855.968 519.152,871.427 518.033,886.966 517.359,902.575 517.133,918.248 517.789,945.19 519.733,971.793 522.938,998.028 527.371,1023.86 533.004,1049.27 539.804,1074.21 547.743,1098.67 556.789,1122.6 566.912,1145.98 578.082,1168.78 590.267,1190.97 603.439,1212.51 617.566,1233.38 632.618,1253.55 648.565,1272.98 665.376,1291.65 683.02,1309.53 701.469,1326.58 927.522,1552.63 836.846,1552.63 836.846,1600 1972.73,2735.88 2400.69,2735.88 2400.69,2688.51 2300.74,2588.56 2306.28,2587.48 2316.73,2585.23 2327.14,2582.78 2337.49,2580.13 2347.78,2577.27 2358.02,2574.22 2368.19,2570.96 2378.3,2567.51 2388.33,2563.86 2398.3,2560.02 2408.19,2555.98 2418,2551.75 2427.73,2547.33 2437.37,2542.72 2446.93,2537.91 2456.39,2532.92 2465.76,2527.74 2475.03,2522.38 2484.2,2516.83 2493.27,2511.09 2502.22,2505.18 2511.07,2499.08 2517.76,2494.26 2534.61,2511.1 2534.96,2511.37 2535.35,2511.56 2535.76,2511.67 2536.17,2511.7 2536.59,2511.65 2536.99,2511.51 2537.35,2511.29 2546.49,2504.41 2551.14,2500.9 2560.27,2494.02 2560.59,2493.73 2560.83,2493.38 2560.99,2493 2561.07,2492.59 2561.08,2492.17 2561.01,2491.74 2560.85,2491.33 2560.61,2490.94 2554.48,2482.8 2554.17,2482.47 2545.03,2473.32 2552.54,2467.41 2525.65,2431.37 2498.73,2404.45 2504.27,2399.8 2511.54,2393.44 2518.66,2386.94 2525.62,2380.3 2532.43,2373.53 2539.09,2366.64 2545.59,2359.62 2551.93,2352.48 2558.12,2345.22 2564.14,2337.85 2570.01,2330.36 2575.71,2322.76 2581.26,2315.06 2586.64,2307.25 2591.85,2299.34 2596.9,2291.33 2601.78,2283.23 2606.49,2275.03 2611.03,2266.75 2615.41,2258.38 2619.61,2249.92 2623.64,2241.39 2627.5,2232.77 2631.18,2224.09 2634.68,2215.33 2638.01,2206.5 2641.16,2197.61 2644.14,2188.65 2646.93,2179.63 2649.54,2170.56 "/>
   </g>
  </g>
  <path class="fil2" d="M1024 -0.0011811c565.541,0 1024,458.461 1024,1024 0,565.541 -458.461,1024 -1024,1024 -565.541,0 -1024,-458.461 -1024,-1024 0,-565.541 458.461,-1024 1024,-1024z"/>
  <g id="_451877640">
   <polygon id="_451878264" class="fil3" points="1074.62,1437.81 1074.62,1576.33 1027.07,1576.33 1027.07,1437.81 "/>
   <polygon id="_451879128" class="fil3" points="1264.81,1600 836.846,1600 836.846,1552.63 1264.81,1552.63 "/>
   <path id="_451879392" class="fil4" d="M727.368 459.127l4.65118 -3.50551 9.13465 -6.88347c0.933072,-0.702756 2.30551,-0.466536 3.05315,0.525591l6.13465 8.14016c0.746457,0.990946 0.594095,2.37638 -0.337796,3.07914l-2.23583 1.68425 0.768898 1.02047c0.359055,0.477166 0.285827,1.14567 -0.162992,1.48347l-3.19607 2.40945 68.8028 92.5052 -10.3039 7.76457 -68.8028 -92.5064 -3.19725 2.40945c-0.448819,0.337796 -1.11024,0.225591 -1.47047,-0.252756l-0.768898 -1.02047 -2.35394 1.77402c-0.93189,0.702756 -2.30551,0.467717 -3.05315,-0.52441l-6.13465 -8.14016c-0.746457,-0.992127 -0.595276,-2.37638 0.337796,-3.07914l9.13465 -6.88347z"/>
   <path id="_451879704" class="fil4" d="M1415.26 1365.02l-4.65118 3.50551 -9.13465 6.88347c-0.933072,0.702756 -2.30551,0.466536 -3.05315,-0.52441l-6.13347 -8.14016c-0.747638,-0.990946 -0.595276,-2.37756 0.336614,-3.08032l2.23583 -1.68425 -0.768898 -1.01929c-0.359055,-0.477166 -0.285827,-1.14567 0.162992,-1.48465l3.19607 -2.40827 -68.8016 -92.5064 10.3028 -7.76457 68.8028 92.5064 3.19725 -2.40945c0.448819,-0.337796 1.11024,-0.22441 1.47047,0.252756l0.768898 1.02047 2.35394 -1.77402c0.933072,-0.702756 2.30551,-0.467717 3.05315,0.52441l6.13465 8.14016c0.746457,0.992127 0.595276,2.37638 -0.337796,3.07914l-9.13465 6.88347z"/>
   <path id="_451877664" class="fil5" d="M1389.77 1295.48l26.8902 36.0402 -18.3933 14.478c-95.6906,75.3284 -214.935,116.658 -336.721,116.658 -300.662,0 -544.413,-243.75 -544.413,-544.413 0,-167.467 77.2713,-325.749 209.167,-428.85 9.67205,-7.55906 19.6453,-14.7969 29.5028,-22.1162l27.626 37.1244c-72.3934,57.9107 -122.678,104.81 -165.82,190.584 -34.3394,68.2701 -52.9193,144.56 -52.9193,223.258 0,274.409 222.448,496.856 496.856,496.856 103.375,0 203.482,-31.8685 287.717,-91.7351 7.11969,-4.79292 33.6012,-23.0681 40.5071,-27.8835z"/>
   <path id="_451879872" class="fil6" d="M881.661 488.791c-0.510237,0.230315 -1.02638,0.446457 -1.53543,0.677953 -232.113,105.712 -335.488,380.41 -230.895,613.551 14.7095,32.7851 32.7473,63.0024 53.5323,90.4324 127.022,167.629 356.659,231.143 556.131,140.296 0.507874,-0.232677 1.0063,-0.48189 1.51654,-0.715749 231.038,-106.219 333.74,-380.21 229.38,-612.84 -104.363,-232.629 -376.348,-335.965 -608.129,-231.402z"/>
   <path id="_451882920" class="fil6" d="M790.339 543.298c-167.215,128.069 -231.043,359.256 -141.109,559.722 14.7095,32.7851 32.7473,63.0036 53.5323,90.4324 127.022,167.628 356.659,231.143 556.131,140.296 0.509056,-0.232677 1.0063,-0.48189 1.51654,-0.715749 31.9441,-14.687 61.4221,-32.5937 88.252,-53.1414l-558.323 -736.594z"/>
   <path id="_451882272" class="fil7" d="M881.659 488.793c-0.510237,0.230315 -1.0252,0.445276 -1.53543,0.676772 -32.3044,14.713 -62.1048,32.7047 -89.2087,53.3977 -0.190158,0.144095 -0.386221,0.284646 -0.576378,0.431103l558.323 736.594 0.0696851 -0.0531496c167.163,-128.076 230.975,-359.208 141.058,-559.646 -104.363,-232.629 -376.348,-335.965 -608.13,-231.401z"/>
   <path id="_451882248" class="fil8" d="M1390.15 576.831c-53.0457,-52.2367 -117.581,-90.2552 -187.401,-111.745l-0.876379 10.1008 -15.9685 16.4823 -4.16929 12.6579 6.53859 9.5445 10.6299 -3.15355 12.8599 12.4028 14.1106 -14.8512 11.9599 18.9898 -5.21221 2.37402 -15.1276 4.34764 -14.5311 9.80906 -5.5193 28.539 -20.2193 13.3288 5.25709 20.1579 10.1622 -2.00079 2.76969 13.2284 -23.5866 5.48859 -17.8665 13.3902 0.79252 12.9945 13.8662 21.6957 14.1012 0.173622 19.428 -8.99883 12.6225 -7.20001 -0.689764 -12.3744 8.52166 -36.2906 14.7933 -3.36969 7.89804 -18.2067 6.75473 8.35158 42.8398 7.31457 -1.56614 7.24253 -15.1689 5.94567 9.32245 5.53111 10.0323 -2.14488 8.64804 -9.33662 -5.97638 -12.841 3.66614 -4.54252 -5.62559 -2.32677 -27.4252 -2.30197 -13.0854 -13.6819 18.2197 -8.29725 8.39528 3.14764 21.8008 6.43347 8.03386 16.1351 24.0543 9.99804 -4.64055 -26.602 8.4815 -11.302 10.8543 18.541 16.4469 7.11851 20.7945 -9.89646z"/>
   <path id="_451880712" class="fil9" d="M1516.13 1025.53c26.2394,-99.4158 17.6669,-207.556 -27.6083,-308.479 -18.5197,-41.2831 -43.5284,-78.6001 -71.4497,-111.297l-0.940158 2.19803 -33.541 15.2752 -27.3307 -5.9752 -20.5465 11.8866 5.92323 13.1976 -6.8256 3.10748 -9.7004 -1.92874 -41.4992 7.4693 -10.8803 -24.2563 -45.5457 25.2 -11.0976 14.5795 -18.7358 8.53111 -9.61654 3.26339 -17.0469 23.0693 10.7209 23.8961 -31.3807 54.913 10.3217 12.6461 9.42639 -4.29331 3.68977 14.8358 -5.54056 5.47914 15.7606 36.0012 60.8339 27.717 17.4851 -7.96418 -0.206693 -3.28937 31.4681 -14.3351 5.28898 -12.5575 17.8453 -8.12717 14.1851 5.38937 27.8232 -9.32363 12.4311 37.115 53.0209 38.9174c-4.2189,72.3615 49.9311,74.2442 76.5568,133.598l16.7114 -6.45945z"/>
   <polygon id="_451883640" class="fil10" points="675.078,815.333 670.759,813.607 670.759,812.532 675.078,813.257 "/>
   <path id="_451880328" class="fil10" d="M672.58 680.464l3.57284 1.78465c0.252756,0.125197 0.412205,0.38504 0.412205,0.664961l0 2.01496 2.10354 2.10473c0.0236221,0.0236221 0.0472441,0.0531496 0.068504,0.0791339l3.45118 4.60276 2.2004 2.19921c0.437008,0.218504 2.15551,0.996851 2.40709,1.24606l4.42678 4.42559c0.596457,0 1.59685,-0.142913 1.59685,0.742914l0 8.12835 -0.00236221 0c0,0.188977 -0.0732284,0.381496 -0.216142,0.52441l-2.23701 2.23819c-0.218504,0.437008 -0.996851,2.15669 -1.24606,2.40591l-2.10473 2.10473c0,0.304725 0.0507874,0.928347 -0.0779528,1.18583l-1.16102 2.32205c-0.230315,0.462992 -1.08307,-0.0165354 -1.08307,0.411024l0 14.1744 1.0311 2.06103c0.36378,0.362599 1.29095,1.09961 1.29095,1.59803l0 1.8626 1.91221 0.954331 -0.0011811 0.0011811c0.448819,0.225591 0.551575,0.830316 0.19252,1.18937l-0.94252 0.943702 0 5.49804c0,0.485433 -0.812599,1.11969 -1.16102,1.46811 0,0.429922 0.0968505,1.06536 -0.217323,1.37953l-0.943702 0.94252 0 16.5284 4.08071 1.01811c0.33189,0.0814961 0.563386,0.382677 0.563386,0.721654l0 3.17481 5.5878 5.5878c0.138189,0.13937 0.217323,0.330709 0.217323,0.526772l0 3.25748 2.19803 3.29528c0.080315,0.120473 0.124016,0.266929 0.124016,0.412205l0 3.17481c0.348425,0.348425 1.16102,0.983859 1.16102,1.46929l0 6.96733 -0.0011811 0c0.00354331,0.485433 -0.812599,1.12087 -1.15984,1.46811l0 17.1071c0,0.425197 -1.33465,1.90394 -1.90394,1.90394l-12.7713 0c-0.0330709,0 -0.0720473,-0.00236221 -0.105118,-0.00708662l-7.27796 -1.04055 0 24.6862c0,0.72756 -0.641339,0.742914 -1.16221,0.742914l0 2.74016c0,0.279921 -0.16063,0.540945 -0.409843,0.664961l-2.21457 1.10669 -5.50276 10.0134 0 3.30827c0,0.196063 -0.080315,0.387402 -0.217323,0.525591l-2.10473 2.10473 0 13.3996 2.19803 3.29528c0.0165354,0.0248032 0.0330709,0.0543308 0.046063,0.0791339l1.07244 2.14606 3.3189 2.21221c0.206693,0.135827 0.330709,0.372048 0.330709,0.618898l0 10.4303c0,0.747638 -0.62126,0.761812 -1.16102,0.761812 0,0.518504 -0.0106299,1.16102 -0.742914,1.16102l-1.57914 0 0 13.1894c0,0.486615 -0.812599,1.12087 -1.16102,1.46929l0 3.17481c0,0.485433 -0.812599,1.11969 -1.16102,1.46811l0 4.33701c0,0.485433 -0.812599,1.12087 -1.16102,1.46929l0 18.8162 13.1469 20.0138 38.5548 23.5099 -1.07953 13.7551 24.965 15.9969 40.8012 -7.58623 -2.67992 -5.9693 15.6236 -4.58504 3.35315 11.165 32.4981 -6.33426 38.1024 17.374 33.241 -12.2079 14.9681 24.9331 -15.0673 25.4799 9.53387 24.026 3.31772 15.8362 49.7681 25.5886 8.60906 12.5799c0,0 12.9496,-2.10473 14.3433,-2.7378 1.3937,-0.634252 34.2272,6.8693 34.2272,6.8693l32.4744 72.3898 9.84331 -1.51181 9.02127 36.078 23.5158 13.0039 12.1335 34.337 34.7965 25.4445 34.7233 10.513 25.2366 -10.9205 -1.18347 -9.20198 -25.3819 -7.20119 -2.39646 -8.21103 -0.951969 -10.9878 -3.63307 -9.97914 -12.5917 5.30906 -9.84804 -5.07284 5.85119 -14.7189 -1.9937 -8.18505 -13.0299 1.92638 -2.46969 -7.3252 15.3248 -9.99686 19.5839 -23.4709 1.4374 -19.2839 11.1024 -45.6898 -17.8016 -23.7118 1.73504 -17.654 24.4583 -10.265 10.4362 -20.3126 -17.576 -53.2737 7.68308 -31.2036 -3.4689 -16.2177 -18.7866 2.18858 -18.887 -12.9473 -37.2024 16.5118 -34.4256 2.13071 -10.8449 -20.4354 -17.5347 -12.7618 -26.7071 11.7189 -26.2642 -17.2193 -16.6264 -0.474804 2.61614 7.69843 -24.15 12.7713 -14.7921 -8.57127 -28.252 6.49961 -10.1906 34.4823 -36.1477 9.55985 -19.4847 -36.9107 -26.3882 6.9567 1.45512 -23.1201 -7.62875 -9.43465 -22.4634 36.2776 -21.3484 6.73938 -14.3681 -12.6047 -2.94567 -18.4099 1.90512 -25.7705 19.8142 -24.776 49.6087 -22.6146 6.67796 15.2717 21.5894 0.219685 -13.0748 -25.3547 7.00985 -18.8504 18.2646 -28.9465 -3.65315 -12.8469 13.7386 -38.8453 20.6398 -27.8327 -3.33189 -0.905906 10.7221 -26.1071 7.63583 -1.29213 4.89213 2.51693 4.92402 -12.6555 -17.2748 3.38268 -3.42874 -7.64056 2.63977 -5.33386 9.17717 -4.17992 5.04449 -0.068504 6.95788 5.72717 4.16103 -2.71536 -0.288189 -0.648426 13.4575 -8.01733 -1.02284 -7.1693 8.16969 -1.4941 3.07914 6.87048 -4.69961 7.82717 0.034252 -0.0153543 4.35827 7.08662 26.6303 -3.40394 0.162992 0.261024 5.17205 -2.90551 -4.21181 -10.3453 -14.726 -0.0307087 -4.61457 -10.291 6.78544 -6.39331 -5.95394 -15.0992 -20.4496 -2.52402 -12.2433 -24.4595 -17.1343 20.9162 -8.05512 3.66851 -6.41339 -19.9441 -33.1748 6.54686 -8.17442 15.0532 12.8941 28.7362 -19.1043 17.2559 -0.53504 22.7847 -8.97284 5.97874 -10.7516 -23.961 -22.2709 6.63898 -13.5662 -2.09291 -11.1815 -13.6087 27.587 -39.1418 15.8433 -13.9736 7.39725 11.5536 9.99331 -5.20394 -2.01142 -6.59646 9.98859 -6.39686 -0.794883 -2.25709 -5.42717 0.180709 -4.00985 -6.10985 12.6272 -7.09253 4.40079 -12.7287 0.111024 0.00472441 1.28386 -3.61299 26.0481 -16.0925 16.9016 4.86496 -24.3319 31.7351 45.0933 -8.89253 -0.875198 -16.1008 17.8252 -8.1189 0.941339 -14.8205 -14.0256 2.58307 -6.78071 -15.1099 -47.3552 0.399213 -25.8732 15.5882 -11.7484 15.0933 9.88229 19.1988 -17.1815 4.84961 -7.38308 -9.74056 9.12166 -21.0969 -28.5945 11.348 -6.93662 6.10985 0.751182 11.0776 11.2831 -2.99882 2.61732 11.4898 -17.3303 9.1689 0.320079 8.30079 -25.5024 12.4795c0,0 -7.33229,-14.426 -8.38583,-13.9465 -1.05354,0.480709 20.1095,-9.59174 20.1095,-9.59174l8.61497 -22.1303 -10.3063 -0.388583 -6.26812 15.9921 -19.0288 7.40079 -18.1228 -10.3843 -23.7744 10.8284 -16.4693 29.9339 22.754 -10.3642 5.07402 5.74607 -3.41103 8.3126 25.4823 -10.7539 7.93229 7.3819 -28.7953 11.85 -4.54961 -6.40276 -19.5402 4.25079 -11.8051 -0.959056 -12.4583 5.79331 -0.0413386 0.103937c0,0.239764 -0.0366142,0.348425 -0.0933072,0.582284 -0.0649607,0.263386 -0.675591,0.955513 -0.895276,1.06536l0 0.0011811c-0.209055,0.0696851 -0.52441,0.412205 -0.6,0.442914 -0.383859,0.159449 -0.45,0.379134 -0.529134,0.778347 -0.0377953,0.19252 -0.166536,0.474804 -0.238583,0.666142l-0.183071 0.668504c0,0.947245 0.0248032,0.980316 -0.42874,1.87559z"/>
   <path id="_451885224" class="fil11" d="M667.548 678.021c-36.5445,61.6264 -56.602,126.471 -62.4544,190.755 -2.50866,27.5504 -3.60827,22.4043 3.36024,49.8815l8.47442 23.8689 21.2599 0.493701 15.0071 33.4524 29.6681 21.1099 14.5725 -4.09725 -2.67284 -10.6536 -27.2681 -17.6315 -14.0162 -22.8083 9.43111 -4.29567 0.557481 0.849213 0 -16.8602c0,-0.487796 0.812599,-1.12087 1.16102,-1.46929l0 -4.33583c0,-0.488977 0.812599,-1.12087 1.16102,-1.46929l0 -3.17481c0,-0.487796 0.812599,-1.12087 1.16102,-1.46929l0 -13.624c0,-0.411024 0.333071,-0.742914 0.744095,-0.742914l1.57914 0c0,-1.09252 0.250394,-1.16102 1.16102,-1.16102l0 -9.30946c-0.527953,-0.350788 -3.22559,-2.02441 -3.40512,-2.38583l-1.14095 -2.28071 -2.29606 -3.44528c-0.080315,-0.121654 -0.125197,-0.265748 -0.125197,-0.412205l0 -13.9323c0,-0.197244 0.0779528,-0.386221 0.218504,-0.525591l2.10354 -2.10473c0,-0.553937 -0.0850394,-3.18071 0.0779528,-3.50788l4.64528 -9.2882c0.0968505,-0.194882 1.29803,-1.39606 1.49291,-1.49291l1.91221 -0.955513 0 -3.02362c0,-0.734646 0.64252,-0.744095 1.16102,-0.744095l0 -24.2953 -5.31733 -2.12717c-0.292914,-0.115748 -0.487796,-0.37441 -0.487796,-0.698032l0 -2.30197c0,-0.421654 0.315355,-0.762993 0.742914,-0.762993l4.6441 0c0.525591,0 1.28268,1.00158 1.68662,1.37835 0.134646,0.133465 0.218504,0.32126 0.218504,0.525591l0 2.83937 19.8461 1.06181 0.725197 -0.726379 0.0011811 -17.1071c0,-0.487796 0.811418,-1.1185 1.15984,-1.46693l0 -6.35197c-0.348425,-0.348425 -1.16102,-0.981497 -1.16102,-1.46929l0 -3.25748 -2.19685 -3.29528c-0.080315,-0.121654 -0.125197,-0.265748 -0.125197,-0.412205l0 -3.17599 -5.58662 -5.5878c-0.138189,-0.13937 -0.217323,-0.328347 -0.217323,-0.525591l0 -2.90315 -4.08071 -1.01929c-0.336614,-0.0850394 -0.564567,-0.388583 -0.563386,-0.720473l-0.0011811 0 0 -17.4154c0,-0.487796 0.81378,-1.12087 1.16221,-1.46929 0,-0.429922 -0.0992127,-1.06299 0.217323,-1.37953l0.943702 -0.94252 0 -5.49804c0,-0.415748 0.37441,-0.680315 0.649607,-0.956694l-1.40079 -0.699213c-0.249213,-0.125197 -0.409843,-0.383859 -0.409843,-0.664961l0 -2.01378c-0.240945,-0.242126 -0.951969,-0.87756 -1.08189,-1.1374l-0.0011811 0c-0.223229,-0.444095 -1.24016,-2.29606 -1.24016,-2.65394l0 -15.0933c0,-0.84567 0.876379,-0.744095 1.44567,-0.744095l0.87756 -1.75394c0,-0.45 -0.108662,-1.18583 0.217323,-1.51181l2.23701 -2.23701c0.218504,-0.435827 0.996851,-2.15551 1.24725,-2.40473l2.10354 -2.10354 0 -7.07835c-0.343701,0 -0.675591,0.0496063 -0.943702,-0.217323l-4.55906 -4.55906c-0.437008,-0.218504 -2.15788,-0.994489 -2.40709,-1.24606l-2.32205 -2.32205c-0.0248032,-0.0259843 -0.0496063,-0.0519685 -0.0696851,-0.080315l-3.45236 -4.60158 -2.28307 -2.28425c-0.138189,-0.140551 -0.217323,-0.328347 -0.217323,-0.525591l0 -1.8626 -4.23307 -2.11654c-0.72756,-0.364961 -0.387402,-1.35 0.253937,-1.4126 0.197244,-0.256299 0.158268,-0.0590552 0.34252,-0.427559 0.168898,-0.424016 0.00590552,-0.755906 0.106299,-1.12559 0.137008,-0.498426 0.296457,-0.889371 0.437008,-1.38662 0.148819,-0.531496 0.227953,-0.729922 0.542126,-1.20118l-4.97953 2.31614z"/>
   <polygon id="_451885104" class="fil12" points="1069.47,911.584 1069.53,911.663 1069.48,911.538 "/>
   <polygon id="_451886088" class="fil12" points="1042.51,904.068 1043.7,896.351 1056.25,887.252 1067.3,902.544 1080.01,911.133 1087.42,914.551 1097.9,913.98 1094.03,927.833 1078.48,936.807 1066.24,942.382 1061.08,927.176 1070.29,920.426 1066.36,913.967 1054.21,912.298 1045.52,910.765 "/>
   <polygon id="_451884768" class="fil12" points="1057.47,921.193 1059.82,903.832 1069.96,896.035 1079.61,895.879 1082.97,905.34 1071.2,925.516 1061.41,929.975 "/>
   <path id="_451884912" class="fil12" d="M1056.43 916.194l12.0402 -5.48386 -0.396851 -7.59213 4.74095 -2.27835 5.9941 -1.35827 -0.141732 5.95748 -5.75197 3.24685 1.39488 6.36969 -3.31418 4.98071 -7.09961 3.97914c-1.02756,-1.62638 -1.80709,-2.87481 -1.80709,-2.87481l-2.85709 1.30158 -2.80158 -6.24804z"/>
   <polygon id="_451876824" class="fil12" points="1067.54,918.964 1065.26,912.638 1066.98,905.938 1074.09,907.697 1075.96,914.242 "/>
   <polygon id="_451881648" class="fil12" points="1063.38,910.474 1066.61,914.886 1074.21,914.903 1069.6,904.613 "/>
  </g>
 </g>
</svg>
